# xmcd CD database file
#
# Track frame offsets:
#	150
#	21686
#	38143
#	52105
#
# Disc length: 1060 seconds
#
# Revision: 0
# Processed by: cddbd v1.5.1PL0 Copyright (c) Steve Scherf et al.
# Submitted via: CDex 1.51
#
DISCID=35042204
DTITLE=スージーズ - １ｓｔ
DYEAR=1900
DGENRE=Rock
TTITLE0=声と素足
TTITLE1=クロコダイル･ハーモニクス
TTITLE2=ローカル
TTITLE3=school
EXTD=
EXTT0=
EXTT1=
EXTT2=
EXTT3=
PLAYORDER=
